<?xml version="1.0" encoding="UTF-8" standalone="no"?>
<!-- Created with Inkscape (http://www.inkscape.org/) -->

<svg
   xmlns:dc="http://purl.org/dc/elements/1.1/"
   xmlns:cc="http://creativecommons.org/ns#"
   xmlns:rdf="http://www.w3.org/1999/02/22-rdf-syntax-ns#"
   xmlns:svg="http://www.w3.org/2000/svg"
   xmlns="http://www.w3.org/2000/svg"
   xmlns:sodipodi="http://sodipodi.sourceforge.net/DTD/sodipodi-0.dtd"
   xmlns:inkscape="http://www.inkscape.org/namespaces/inkscape"
   width="102.02333mm"
   height="63.217777mm"
   viewBox="0 0 361.49999 224"
   id="svg16008"
   version="1.1"
   inkscape:version="0.91 r13725"
   sodipodi:docname="vinyl.svg"
   inkscape:export-filename="/home/algot/Documents/runeman.org/clipart/vinyl.png"
   inkscape:export-xdpi="37.344398"
   inkscape:export-ydpi="37.344398">
  <title
     id="title16107">Vinyl Records</title>
  <defs
     id="defs16010" />
  <sodipodi:namedview
     id="base"
     pagecolor="#ffffff"
     bordercolor="#666666"
     borderopacity="1.0"
     inkscape:pageopacity="0.0"
     inkscape:pageshadow="2"
     inkscape:zoom="1"
     inkscape:cx="284.57143"
     inkscape:cy="57.499122"
     inkscape:document-units="px"
     inkscape:current-layer="layer1"
     showgrid="false"
     inkscape:window-width="1366"
     inkscape:window-height="709"
     inkscape:window-x="-4"
     inkscape:window-y="0"
     inkscape:window-maximized="1"
     fit-margin-top="0"
     fit-margin-left="0"
     fit-margin-right="0"
     fit-margin-bottom="0" />
  <metadata
     id="metadata16013">
    <rdf:RDF>
      <cc:Work
         rdf:about="">
        <dc:format>image/svg+xml</dc:format>
        <dc:type
           rdf:resource="http://purl.org/dc/dcmitype/StillImage" />
        <dc:title>Vinyl Records</dc:title>
        <dc:date>2015-11-08</dc:date>
        <dc:creator>
          <cc:Agent>
            <dc:title>Algot Runeman</dc:title>
          </cc:Agent>
        </dc:creator>
        <dc:rights>
          <cc:Agent>
            <dc:title>Algot Runeman</dc:title>
          </cc:Agent>
        </dc:rights>
        <dc:publisher>
          <cc:Agent>
            <dc:title>runeman.org</dc:title>
          </cc:Agent>
        </dc:publisher>
        <dc:identifier>vinyl.svg</dc:identifier>
        <dc:relation>vinyl.png</dc:relation>
        <dc:subject>
          <rdf:Bag>
            <rdf:li>vinyl</rdf:li>
            <rdf:li>record</rdf:li>
            <rdf:li>33rpm</rdf:li>
            <rdf:li>LP</rdf:li>
            <rdf:li>45rpm</rdf:li>
            <rdf:li>single</rdf:li>
            <rdf:li>audio</rdf:li>
            <rdf:li>recording</rdf:li>
          </rdf:Bag>
        </dc:subject>
        <dc:description>Blank Labelled records, a 33rpm LP and a 45rpm single</dc:description>
        <cc:license
           rdf:resource="http://creativecommons.org/publicdomain/zero/1.0/" />
      </cc:Work>
      <cc:License
         rdf:about="http://creativecommons.org/publicdomain/zero/1.0/">
        <cc:permits
           rdf:resource="http://creativecommons.org/ns#Reproduction" />
        <cc:permits
           rdf:resource="http://creativecommons.org/ns#Distribution" />
        <cc:permits
           rdf:resource="http://creativecommons.org/ns#DerivativeWorks" />
      </cc:License>
    </rdf:RDF>
  </metadata>
  <g
     inkscape:label="Layer 1"
     inkscape:groupmode="layer"
     id="layer1"
     transform="translate(515,-365.86133)">
    <g
       id="g16071"
       transform="matrix(0.9218107,0,0,0.9218107,-22.753086,27.222908)">
      <circle
         r="117.5"
         cy="488.86221"
         cx="-412.5"
         id="path16016"
         style="opacity:1;fill:#000000;fill-opacity:1;stroke:#000000;stroke-width:8;stroke-linecap:round;stroke-linejoin:bevel;stroke-miterlimit:4;stroke-dasharray:none;stroke-dashoffset:0;stroke-opacity:1" />
      <circle
         r="40"
         cy="488.86221"
         cx="-412.5"
         id="path16020"
         style="opacity:1;fill:#00ff00;fill-opacity:1;stroke:#000000;stroke-width:1;stroke-linecap:round;stroke-linejoin:bevel;stroke-miterlimit:4;stroke-dasharray:none;stroke-dashoffset:0;stroke-opacity:1" />
      <circle
         r="5.5"
         cy="488.86221"
         cx="-412.5"
         id="path16018"
         style="opacity:1;fill:#ffffff;fill-opacity:1;stroke:#000000;stroke-width:1;stroke-linecap:round;stroke-linejoin:bevel;stroke-miterlimit:4;stroke-dasharray:none;stroke-dashoffset:0;stroke-opacity:1" />
      <g
         transform="matrix(1.0266667,0,0,1.0266667,13.053347,-10.983005)"
         id="g16039">
        <path
           style="opacity:1;fill:#333333;fill-opacity:1;stroke:#000000;stroke-width:1.20320845;stroke-linecap:round;stroke-linejoin:bevel;stroke-miterlimit:4;stroke-dasharray:none;stroke-dashoffset:0;stroke-opacity:1"
           d="M -414.5,374.96382 A 111.89839,111.89839 0 0 0 -526.39839,486.86221 111.89839,111.89839 0 0 0 -414.5,598.7606 111.89839,111.89839 0 0 0 -302.60161,486.86221 111.89839,111.89839 0 0 0 -414.5,374.96382 Z m 0,8.97706 A 102.92258,102.92258 0 0 1 -311.57632,486.86221 102.92258,102.92258 0 0 1 -414.5,589.78588 102.92258,102.92258 0 0 1 -517.42368,486.86221 102.92258,102.92258 0 0 1 -414.5,383.94088 Z"
           id="path16022"
           inkscape:connector-curvature="0" />
        <path
           inkscape:connector-curvature="0"
           id="path16027"
           d="M -414.5,382.0524 A 104.80981,104.80981 0 0 0 -519.30981,486.86221 104.80981,104.80981 0 0 0 -414.5,591.67202 104.80981,104.80981 0 0 0 -309.69019,486.86221 104.80981,104.80981 0 0 0 -414.5,382.0524 Z m 0,8.40838 a 96.402602,96.402602 0 0 1 96.40363,96.40143 A 96.402602,96.402602 0 0 1 -414.5,583.26583 96.402602,96.402602 0 0 1 -510.90363,486.86221 96.402602,96.402602 0 0 1 -414.5,390.46078 Z"
           style="opacity:1;fill:#333333;fill-opacity:1;stroke:#000000;stroke-width:1.12698722;stroke-linecap:round;stroke-linejoin:bevel;stroke-miterlimit:4;stroke-dasharray:none;stroke-dashoffset:0;stroke-opacity:1" />
        <path
           style="opacity:1;fill:#333333;fill-opacity:1;stroke:#000000;stroke-width:1.02898824;stroke-linecap:round;stroke-linejoin:bevel;stroke-miterlimit:4;stroke-dasharray:none;stroke-dashoffset:0;stroke-opacity:1"
           d="m -414.5,391.1663 a 95.695909,95.695909 0 0 0 -95.69591,95.69591 95.695909,95.695909 0 0 0 95.69591,95.69591 95.695909,95.695909 0 0 0 95.69591,-95.69591 A 95.695909,95.695909 0 0 0 -414.5,391.1663 Z m 0,7.67721 a 88.019767,88.019767 0 0 1 88.0207,88.0187 88.019767,88.019767 0 0 1 -88.0207,88.0207 88.019767,88.019767 0 0 1 -88.0207,-88.0207 88.019767,88.019767 0 0 1 88.0207,-88.0187 z"
           id="path16029"
           inkscape:connector-curvature="0" />
        <path
           style="opacity:1;fill:#333333;fill-opacity:1;stroke:#000000;stroke-width:0.97998881;stroke-linecap:round;stroke-linejoin:bevel;stroke-miterlimit:4;stroke-dasharray:none;stroke-dashoffset:0;stroke-opacity:1"
           d="m -414.5,395.72325 a 91.138961,91.138961 0 0 0 -91.13896,91.13896 91.138961,91.138961 0 0 0 91.13896,91.13896 91.138961,91.138961 0 0 0 91.13896,-91.13896 A 91.138961,91.138961 0 0 0 -414.5,395.72325 Z m 0,7.31163 a 83.828349,83.828349 0 0 1 83.82925,83.82733 A 83.828349,83.828349 0 0 1 -414.5,570.69145 83.828349,83.828349 0 0 1 -498.32925,486.86221 83.828349,83.828349 0 0 1 -414.5,403.03488 Z"
           id="path16031"
           inkscape:connector-curvature="0" />
        <path
           inkscape:connector-curvature="0"
           id="path16033"
           d="m -414.5,403.64837 a 83.213833,83.213833 0 0 0 -83.21384,83.21384 83.213833,83.213833 0 0 0 83.21384,83.21384 83.213833,83.213833 0 0 0 83.21384,-83.21384 A 83.213833,83.213833 0 0 0 -414.5,403.64837 Z m 0,6.67584 a 76.538927,76.538927 0 0 1 76.53974,76.538 76.538927,76.538927 0 0 1 -76.53974,76.53974 76.538927,76.538927 0 0 1 -76.53974,-76.53974 76.538927,76.538927 0 0 1 76.53974,-76.538 z"
           style="opacity:1;fill:#333333;fill-opacity:1;stroke:#000000;stroke-width:0.89477235;stroke-linecap:round;stroke-linejoin:bevel;stroke-miterlimit:4;stroke-dasharray:none;stroke-dashoffset:0;stroke-opacity:1" />
        <path
           inkscape:connector-curvature="0"
           id="path16035"
           d="m -414.5,408.38145 a 78.480772,78.480772 0 0 0 -78.48076,78.48076 78.480772,78.480772 0 0 0 78.48076,78.48076 78.480772,78.480772 0 0 0 78.48076,-78.48076 A 78.480772,78.480772 0 0 0 -414.5,408.38145 Z m 0,6.29612 a 72.185522,72.185522 0 0 1 72.18629,72.18464 A 72.185522,72.185522 0 0 1 -414.5,559.0485 72.185522,72.185522 0 0 1 -486.68629,486.86221 72.185522,72.185522 0 0 1 -414.5,414.67757 Z"
           style="opacity:1;fill:#333333;fill-opacity:1;stroke:#000000;stroke-width:0.84387928;stroke-linecap:round;stroke-linejoin:bevel;stroke-miterlimit:4;stroke-dasharray:none;stroke-dashoffset:0;stroke-opacity:1" />
        <path
           style="opacity:1;fill:#333333;fill-opacity:1;stroke:#000000;stroke-width:0.77049839;stroke-linecap:round;stroke-linejoin:bevel;stroke-miterlimit:4;stroke-dasharray:none;stroke-dashoffset:0;stroke-opacity:1"
           d="m -414.5,415.20585 a 71.656356,71.656356 0 0 0 -71.65636,71.65636 71.656356,71.656356 0 0 0 71.65636,71.65636 71.656356,71.656356 0 0 0 71.65636,-71.65636 A 71.656356,71.656356 0 0 0 -414.5,415.20585 Z m 0,5.74865 a 65.90852,65.90852 0 0 1 65.90922,65.90771 A 65.90852,65.90852 0 0 1 -414.5,552.77143 65.90852,65.90852 0 0 1 -480.40922,486.86221 65.90852,65.90852 0 0 1 -414.5,420.9545 Z"
           id="path16037"
           inkscape:connector-curvature="0" />
      </g>
    </g>
    <circle
       r="66.728394"
       cy="520.86133"
       cx="-222.5"
       id="circle16054"
       style="opacity:1;fill:#000000;fill-opacity:1;stroke:#000000;stroke-width:4.54321003;stroke-linecap:round;stroke-linejoin:bevel;stroke-miterlimit:4;stroke-dasharray:none;stroke-dashoffset:0;stroke-opacity:1" />
    <circle
       r="40"
       cy="520.86133"
       cx="-222.5"
       id="circle16058"
       style="opacity:1;fill:#0000ff;fill-opacity:1;stroke:#000000;stroke-width:1;stroke-linecap:round;stroke-linejoin:bevel;stroke-miterlimit:4;stroke-dasharray:none;stroke-dashoffset:0;stroke-opacity:1" />
    <circle
       r="12.375"
       cy="520.86133"
       cx="-222.5"
       id="circle16056"
       style="opacity:1;fill:#ffffff;fill-opacity:1;stroke:#000000;stroke-width:2.25;stroke-linecap:round;stroke-linejoin:bevel;stroke-miterlimit:4;stroke-dasharray:none;stroke-dashoffset:0;stroke-opacity:1" />
    <path
       style="opacity:1;fill:#333333;fill-opacity:1;stroke:#000000;stroke-width:1.32989693;stroke-linecap:round;stroke-linejoin:bevel;stroke-miterlimit:4;stroke-dasharray:none;stroke-dashoffset:0;stroke-opacity:1"
       d="m -222.5,457.02628 a 63.835052,63.835052 0 0 0 -63.83505,63.83505 63.835052,63.835052 0 0 0 63.83505,63.83505 63.835052,63.835052 0 0 0 63.83505,-63.83505 A 63.835052,63.835052 0 0 0 -222.5,457.02628 Z m 0,21.06017 a 42.776065,42.776065 0 0 1 42.77488,42.77488 A 42.776065,42.776065 0 0 1 -222.5,563.63881 42.776065,42.776065 0 0 1 -265.27488,520.86133 42.776065,42.776065 0 0 1 -222.5,478.08645 Z"
       id="path16060"
       inkscape:connector-curvature="0" />
  </g>
</svg>
